<svg viewBox="0 0 28 28" fill="none" xmlns="http://www.w3.org/2000/svg" class="-mb-4">
  <path
    d="M13.9994 8.16666C13.7016 8.16816 13.4078 8.23594 13.1394 8.36509C12.871 8.49424 12.6348 8.68151 12.4477 8.91332L7.53608 14.8633C7.24907 15.2215 7.06846 15.6532 7.01483 16.109C6.9612 16.5649 7.0367 17.0266 7.23274 17.4417C7.39174 17.8024 7.65119 18.1097 7.98013 18.3269C8.30907 18.5441 8.69358 18.6621 9.08774 18.6667H18.9111C19.3052 18.6621 19.6898 18.5441 20.0187 18.3269C20.3476 18.1097 20.6071 17.8024 20.7661 17.4417C20.9621 17.0266 21.0376 16.5649 20.984 16.109C20.9304 15.6532 20.7498 15.2215 20.4627 14.8633L15.5511 8.91332C15.3641 8.68151 15.1278 8.49424 14.8594 8.36509C14.591 8.23594 14.2972 8.16816 13.9994 8.16666Z"
    fill="currentColor" />
</svg>