<svg viewBox="0 0 28 28" fill="none" xmlns="http://www.w3.org/2000/svg">
  <path
    d="M13.9994 19.8333C13.7016 19.8318 13.4078 19.7641 13.1394 19.6349C12.871 19.5058 12.6348 19.3185 12.4477 19.0867L7.53608 13.1367C7.24907 12.7785 7.06846 12.3468 7.01483 11.891C6.9612 11.4351 7.0367 10.9734 7.23274 10.5583C7.39174 10.1976 7.65119 9.89033 7.98013 9.6731C8.30907 9.45588 8.69358 9.33793 9.08774 9.33334H18.9111C19.3052 9.33793 19.6898 9.45588 20.0187 9.6731C20.3476 9.89033 20.6071 10.1976 20.7661 10.5583C20.9621 10.9734 21.0376 11.4351 20.984 11.891C20.9304 12.3468 20.7498 12.7785 20.4627 13.1367L15.5511 19.0867C15.3641 19.3185 15.1278 19.5058 14.8594 19.6349C14.591 19.7641 14.2972 19.8318 13.9994 19.8333Z"
    fill="currentColor" />
</svg>