<svg viewBox="0 0 202 44" fill="none" xmlns="http://www.w3.org/2000/svg">
  <path
    d="M46.9823 33.1818L40.2936 25.7246V33.1818H37.4626V10.3794H40.2936V23.7829L46.8576 16.2943H50.8082L42.7798 24.7077L50.8375 33.1818H46.9823Z"
    fill="#FCFCFC" />
  <path
    d="M55.0251 32.3804C53.7294 31.6613 52.7124 30.6396 51.9766 29.3152C51.2407 27.9908 50.8716 26.4558 50.8716 24.7077C50.8716 22.9815 51.2505 21.4561 52.0084 20.1318C52.7662 18.8074 53.7979 17.7905 55.1033 17.0811C56.4112 16.3717 57.8732 16.0182 59.4915 16.0182C61.1099 16.0182 62.5718 16.3717 63.8797 17.0811C65.1877 17.7905 66.2193 18.8026 66.9747 20.1173C67.7326 21.4319 68.1115 22.9621 68.1115 24.7077C68.1115 26.4534 67.7228 27.9884 66.9454 29.3152C66.168 30.6396 65.1143 31.6637 63.7868 32.3804C62.4594 33.0995 60.9877 33.4578 59.3693 33.4578C57.768 33.4578 56.3208 33.0995 55.0251 32.3804ZM62.2271 30.2837C63.1194 29.8115 63.8406 29.1021 64.3907 28.1579C64.9407 27.2136 65.2146 26.0636 65.2146 24.7077C65.2146 23.3519 64.9456 22.2019 64.4054 21.2552C63.8651 20.3109 63.161 19.6064 62.2907 19.1439C61.4204 18.6815 60.4743 18.4515 59.4598 18.4515C58.4232 18.4515 57.4722 18.6815 56.6117 19.1439C55.7512 19.6064 55.0618 20.3109 54.5435 21.2552C54.0252 22.1994 53.7661 23.3519 53.7661 24.7077C53.7661 26.0854 54.0203 27.2451 54.5288 28.1894C55.0373 29.1336 55.7169 29.8382 56.5677 30.3006C57.4184 30.7631 58.3523 30.9931 59.3669 30.9931C60.3814 30.9931 61.3348 30.7582 62.2271 30.2837Z"
    fill="#FCFCFC" />
  <path
    d="M83.6353 17.851C84.9212 19.0931 85.5642 20.8872 85.5642 23.2284V33.1818H82.765V23.6303C82.765 21.9452 82.3397 20.6571 81.4889 19.7637C80.6382 18.8703 79.4769 18.4224 78.0052 18.4224C76.5115 18.4224 75.3234 18.8849 74.4433 19.8097C73.5608 20.7346 73.1207 22.0808 73.1207 23.8458V33.1818H70.2874V16.2942H73.1183V18.6984C73.6781 17.8365 74.4409 17.1683 75.4041 16.6962C76.3697 16.224 77.4307 15.9868 78.5944 15.9868C80.6675 15.9868 82.3494 16.609 83.6353 17.851Z"
    fill="#FCFCFC" />
  <path
    d="M101.993 17.851C103.278 19.0931 103.921 20.8872 103.921 23.2284V33.1818H101.122V23.6303C101.122 21.9452 100.697 20.6571 99.8461 19.7637C98.9953 18.8703 97.8341 18.4224 96.3624 18.4224C94.8687 18.4224 93.6806 18.8849 92.8005 19.8097C91.918 20.7346 91.4779 22.0808 91.4779 23.8458V33.1818H88.647V16.2942H91.4779V18.6984C92.0378 17.8365 92.8005 17.1683 93.7637 16.6962C94.7294 16.224 95.7904 15.9868 96.954 15.9868C99.0247 15.9868 100.707 16.609 101.993 17.851Z"
    fill="#FCFCFC" />
  <path
    d="M122.464 25.7852H108.835C108.938 27.4485 109.515 28.7487 110.561 29.6832C111.607 30.6178 112.879 31.0851 114.372 31.0851C115.597 31.0851 116.617 30.8018 117.438 30.2377C118.257 29.6735 118.834 28.9181 119.164 27.9739H122.212C121.755 29.5961 120.843 30.9156 119.474 31.9325C118.105 32.9493 116.404 33.4578 114.372 33.4578C112.754 33.4578 111.307 33.0995 110.033 32.3804C108.757 31.6613 107.757 30.6396 107.031 29.3152C106.305 27.9908 105.943 26.4558 105.943 24.7077C105.943 22.9621 106.295 21.4319 107.002 20.1173C107.706 18.8026 108.698 17.7905 109.972 17.0811C111.246 16.3717 112.715 16.0182 114.375 16.0182C115.993 16.0182 117.423 16.3669 118.668 17.0666C119.912 17.7639 120.87 18.7251 121.545 19.9478C122.22 21.1705 122.557 22.5505 122.557 24.0928C122.56 24.6254 122.528 25.1896 122.464 25.7852ZM118.92 20.7467C118.443 19.9768 117.795 19.3909 116.976 18.9914C116.157 18.5919 115.25 18.391 114.253 18.391C112.822 18.391 111.603 18.8437 110.598 19.7468C109.591 20.6523 109.016 21.9041 108.872 23.5069H119.638C119.633 22.4367 119.396 21.5167 118.92 20.7467Z"
    fill="#FCFCFC" />
  <path
    d="M134.258 33.1818L127.569 25.7246V33.1818H124.738V10.3794H127.569V23.7829L134.133 16.2943H138.084L130.055 24.7077L138.113 33.1818H134.258Z"
    fill="#FCFCFC" />
  <path
    d="M142.66 18.6065V28.5598C142.66 29.3806 142.836 29.9617 143.188 30.3006C143.54 30.6396 144.154 30.8091 145.024 30.8091H147.11V33.1818H144.557C142.98 33.1818 141.797 32.8235 141.01 32.1044C140.22 31.3853 139.827 30.2038 139.827 28.5598V18.6065H135.539L137.619 16.2943H139.829V12.0427H142.66V16.2943H147.11V18.6065H142.66Z"
    fill="#FCFCFC" />
  <path d="M166.896 11.7037L158.714 33.1817H155.448L147.266 11.7037H150.282L157.096 30.2231L163.909 11.7037H166.896Z"
    fill="#FCFCFC" />
  <path
    d="M181.1 22.4415C179.865 23.6231 177.983 24.2138 175.453 24.2138H171.284V33.1817H168.453V11.7037H175.455C177.902 11.7037 179.765 12.2897 181.041 13.4591C182.317 14.6309 182.955 16.1393 182.955 17.989C182.953 19.7758 182.334 21.26 181.1 22.4415ZM178.939 20.8872C179.687 20.2092 180.058 19.2432 180.058 17.9915C180.058 15.3403 178.523 14.0159 175.453 14.0159H171.284V21.904H175.453C177.029 21.904 178.191 21.5651 178.939 20.8872Z"
    fill="#FCFCFC" />
  <path
    d="M201.963 33.1817H199.132L187.745 16.0787V33.1817H184.914V11.6722H187.745L199.132 28.7438V11.6722H201.963V33.1817Z"
    fill="#FCFCFC" />
  <path d="M0 0H0.97298V0.237275H0.63318V1.12342H0.337368V0.237275H0V0Z" fill="#FCFCFC" />
  <path
    d="M1.09277 0H1.41547L1.74552 0.6634L2.07309 0H2.3958V1.12342H2.13421L2.13177 0.404335L1.84085 1.01205H1.65017L1.35925 0.404335V1.12342H1.09522V0H1.09277Z"
    fill="#FCFCFC" />
  <path
    d="M21.2567 39.2783C21.0929 39.2783 20.934 39.2129 20.8191 39.0991L1.07092 19.541C-0.263875 18.2167 -0.263875 16.0643 1.07092 14.7423L11.7029 4.21274C11.8202 4.09652 11.9767 4.03357 12.1405 4.03357H13.9398C14.2502 4.03357 14.4042 4.40401 14.1867 4.62191L2.51817 16.1781C1.98034 16.7107 1.98034 17.5775 2.51817 18.1101L23.3029 38.6948C23.5229 38.9127 23.3665 39.2831 23.056 39.2831H21.2567V39.2783Z"
    fill="url(#paint0_linear_2032_2303)" />
  <path
    d="M31.644 39.9877L15.3429 23.8435L8.88888 17.4517L8.61018 17.1756L22.5058 3.41382C23.0852 2.84001 23.2587 1.98292 22.9434 1.23479C22.6305 0.484232 21.8971 0 21.0756 0H10.3606C9.34604 0 8.39505 0.389807 7.67875 1.0992L1.00476 7.70895C0.356921 8.35055 0 9.20279 0 10.1083C0 11.0138 0.356921 11.8661 1.00476 12.5077L5.71568 17.1756L1.13434 21.7129C0.486496 22.3545 0.129561 23.2067 0.129561 24.1122C0.129561 25.0202 0.486496 25.87 1.13434 26.5116L17.0761 42.2999C17.7924 43.0117 18.7459 43.4015 19.758 43.4015H30.2114C31.0304 43.4015 31.7638 42.9173 32.0792 42.1668C32.3945 41.4186 32.2234 40.5615 31.644 39.9877ZM2.45201 11.0768C2.17821 10.8056 2.03398 10.4376 2.04865 10.0502C2.06332 9.69671 2.22955 9.36259 2.48379 9.11321L9.12602 2.53494C9.45361 2.21051 9.89854 2.02892 10.363 2.02892H20.4767C20.6747 2.02892 20.7749 2.2662 20.6356 2.40662L7.16782 15.7447L2.45201 11.0768ZM29.6125 41.3775H19.7604C19.2959 41.3775 18.851 41.1959 18.5234 40.8714L2.61337 25.1146C2.35912 24.8628 2.19288 24.5311 2.17821 24.1776C2.1611 23.7902 2.30534 23.4222 2.58159 23.151L7.16293 18.6138L7.44652 18.8947L13.8932 25.2792L29.7665 41.0022C29.9107 41.1378 29.8105 41.3775 29.6125 41.3775Z"
    fill="url(#paint1_linear_2032_2303)" />
  <defs>
    <linearGradient id="paint0_linear_2032_2303" x1="11.7352" y1="39.6025" x2="11.7352" y2="4.86097"
      gradientUnits="userSpaceOnUse">
      <stop stop-color="#76F490" />
      <stop offset="1" stop-color="#0158F4" />
    </linearGradient>
    <linearGradient id="paint1_linear_2032_2303" x1="-2.44469e-05" y1="21.7018" x2="32.2366" y2="21.7018"
      gradientUnits="userSpaceOnUse">
      <stop stop-color="#76F490" />
      <stop offset="1" stop-color="#0158F4" />
    </linearGradient>
  </defs>
</svg>