<?xml version="1.0" encoding="UTF-8"?>
<svg id="Layer_2" data-name="Layer 2" xmlns="http://www.w3.org/2000/svg" viewBox="0 0 266.77 75.99">
  <defs>
    <style>
      .cls-1 {
        fill: #fff;
        stroke-width: 0px;
      }
    </style>
  </defs>
  <g id="Layer_1-2" data-name="Layer 1">
    <g id="Logo_White" data-name="Logo White">
      <path class="cls-1" d="m50.18,16.88c-1.78-4.14-4.38-7.62-7.78-10.42C37.13,2.15,30.39,0,22.19,0H2.92C1.63,0,.82.16.49.49c-.33.33-.49,1.14-.49,2.43v15.23l10.95,8.36V9.51h10.95c4.61,0,6.44.65,9.28,1.94,2.84,1.29,5.18,3.39,7.02,6.3,1.98,3.13,2.96,6.57,2.96,10.33,0,2.72-.53,5.33-1.61,7.84-1.07,2.51-2.55,4.62-4.45,6.32-1.76,1.56-3.82,2.7-6.19,3.4-2.38.7-3.45,1.05-7.02,1.05h0v-11.81l-10.95-8.36v26.75c0,1.29.17,2.1.49,2.43s1.14.49,2.43.49h8.23c4.75,0,8.82-.62,12.23-1.85,5.41-1.98,9.8-5.43,13.17-10.37,3.29-4.8,4.94-10.13,4.94-15.97,0-3.87-.76-7.57-2.27-11.11Z"/>
      <path class="cls-1" d="m63.43,2.1c1.7,0,3.15.6,4.34,1.79,1.19,1.19,1.79,2.64,1.79,4.34s-.6,3.16-1.79,4.36c-1.19,1.21-2.64,1.81-4.34,1.81s-3.15-.6-4.34-1.81c-1.19-1.21-1.79-2.68-1.79-4.4s.6-3.11,1.81-4.3c1.21-1.19,2.65-1.79,4.32-1.79Z"/>
      <path class="cls-1" d="m68.54,22.6v30.67c0,1.29-.16,2.1-.49,2.43-.33.33-1.12.49-2.39.49h-4.45c-1.26,0-2.06-.16-2.39-.49s-.49-1.14-.49-2.43v-30.67c0-1.29.17-2.1.49-2.43.33-.33,1.12-.49,2.39-.49h4.45c1.26,0,2.06.16,2.39.49s.49,1.14.49,2.43Z"/>
      <path class="cls-1" d="m84.51,24.21c1.4-1.78,2.76-3.06,4.08-3.83,2.14-1.26,4.61-1.89,7.41-1.89,4.5,0,8.04,1.47,10.62,4.4,1.07,1.23,1.82,2.61,2.24,4.12.43,1.51.64,3.51.64,6.01v20.26c0,1.29-.16,2.1-.49,2.43-.33.33-1.12.49-2.39.49h-4.45c-1.23,0-2.03-.16-2.39-.49-.33-.36-.49-1.17-.49-2.43v-17.29c0-2.8-.33-4.77-.99-5.93-1.1-1.92-3.1-2.88-6.01-2.88-2.64,0-4.59.83-5.87,2.49-1.28,1.66-1.91,4.2-1.91,7.64v15.97c0,1.29-.16,2.1-.49,2.43-.33.33-1.14.49-2.43.49h-4.41c-1.26,0-2.06-.16-2.39-.49-.33-.33-.49-1.14-.49-2.43v-30.67c0-1.29.16-2.1.49-2.43.33-.33,1.12-.49,2.39-.49h4.41c1.29,0,2.1.16,2.43.49.33.33.49,1.14.49,2.43v1.61Z"/>
      <path class="cls-1" d="m124.26,39.6c.11,3.1.91,5.49,2.39,7.16,1.59,1.76,3.79,2.63,6.59,2.63,3.46,0,6.13-1.34,8.03-4.03.36-.49.81-.74,1.36-.74.08,0,.58.07,1.48.21l3.7.62c1.01.16,1.7.37,2.06.62s.53.66.53,1.23c0,.52-.29,1.25-.86,2.18-.58.93-1.26,1.78-2.06,2.55-3.65,3.57-8.36,5.35-14.12,5.35-3.62,0-6.96-.77-10-2.31-3.65-1.84-6.27-4.61-7.86-8.31-1.12-2.61-1.69-5.53-1.69-8.77,0-3.79.82-7.27,2.47-10.46,1.59-3.13,3.95-5.45,7.08-6.96,2.85-1.4,6.04-2.1,9.55-2.1,5.38,0,9.74,1.52,13.09,4.57,1.7,1.56,3.06,3.62,4.08,6.17,1.01,2.55,1.52,5.17,1.52,7.86,0,1.07-.17,1.76-.52,2.06-.34.3-1.15.45-2.41.45h-24.41Zm17.62-6.5c-.41-1.84-1.06-3.28-1.93-4.32-1.67-2-3.94-3-6.79-3-2.22,0-4.08.64-5.58,1.93-1.5,1.29-2.48,3.09-2.94,5.39h17.25Z"/>
      <path class="cls-1" d="m165.8,25.19c2.53-4.47,6.11-6.71,10.75-6.71,2.74,0,4.12.7,4.12,2.1,0,.27-.06.77-.16,1.48l-.58,3.62c-.14,1.01-.33,1.71-.58,2.08s-.64.56-1.19.56c-.17,0-.41-.04-.74-.12-1.4-.36-2.51-.53-3.33-.53-2.39,0-4.38.89-5.97,2.68-1.54,1.67-2.31,4.45-2.31,8.31v14.61c0,1.29-.16,2.1-.49,2.43-.33.33-1.14.49-2.43.49h-4.41c-1.26,0-2.06-.16-2.39-.49-.33-.33-.49-1.14-.49-2.43v-30.67c0-1.29.16-2.1.49-2.43.33-.33,1.12-.49,2.39-.49h4.41c1.29,0,2.1.16,2.43.49.33.33.49,1.14.49,2.43v2.59Z"/>
      <path class="cls-1" d="m201.61,18.48c6.59,0,11.84,2.07,15.76,6.22,3.35,3.54,5.02,7.94,5.02,13.21,0,6.04-2.14,10.91-6.42,14.61-3.79,3.24-8.66,4.86-14.61,4.86-3.81,0-7.41-.85-10.79-2.55-3.35-1.67-5.9-4.14-7.66-7.41-1.51-2.85-2.26-6.12-2.26-9.8,0-5.98,2.22-10.8,6.67-14.45,2.14-1.76,4.75-3.03,7.82-3.83,2.22-.58,4.38-.86,6.46-.86Zm-.08,9.22c-2.85,0-5.28,1-7.29,3.01-2,2.03-3.01,4.49-3.01,7.37,0,2.72,1,5.08,3.01,7.08,2,2,4.43,3,7.29,3s5.28-1,7.29-3c2-1.98,3-4.38,3-7.21s-1-5.29-3-7.24c-2.06-2-4.49-3.01-7.29-3.01Z"/>
      <path class="cls-1" d="m245.98,18.48c6.59,0,11.84,2.07,15.76,6.22,3.35,3.54,5.02,7.94,5.02,13.21,0,6.04-2.14,10.91-6.42,14.61-3.79,3.24-8.66,4.86-14.61,4.86-3.81,0-7.41-.85-10.79-2.55-3.35-1.67-5.9-4.14-7.66-7.41-1.51-2.85-2.26-6.12-2.26-9.8,0-5.98,2.22-10.8,6.67-14.45,2.14-1.76,4.75-3.03,7.82-3.83,2.22-.58,4.38-.86,6.46-.86Zm-.08,9.22c-2.85,0-5.28,1-7.29,3.01-2,2.03-3.01,4.49-3.01,7.37,0,2.72,1,5.08,3.01,7.08,2,2,4.43,3,7.29,3s5.28-1,7.29-3c2-1.98,3-4.38,3-7.21s-1-5.29-3-7.24c-2.06-2-4.49-3.01-7.29-3.01Z"/>
      <g>
        <path class="cls-1" d="m167.53,73.03v-8.84h3.22c.99,0,1.75.18,2.27.54.53.36.8.87.8,1.53,0,.48-.16.89-.48,1.25-.32.36-.73.61-1.24.75v.02c.63.08,1.13.31,1.51.7s.56.86.56,1.41c0,.81-.29,1.45-.87,1.93-.58.48-1.37.71-2.37.71h-3.4Zm1.99-7.38v2.1h.88c.41,0,.73-.1.97-.3.24-.2.35-.47.35-.82,0-.65-.48-.97-1.45-.97h-.75Zm0,3.58v2.33h1.08c.46,0,.82-.11,1.08-.32.26-.21.39-.51.39-.88s-.13-.63-.38-.83-.62-.3-1.08-.3h-1.09Z"/>
        <path class="cls-1" d="m181.11,70.42h-4.12c.06.92.64,1.38,1.73,1.38.69,0,1.3-.16,1.83-.49v1.41c-.58.31-1.34.47-2.28.47-1.02,0-1.81-.28-2.37-.85-.56-.56-.84-1.35-.84-2.37s.3-1.88.91-2.49,1.36-.92,2.25-.92,1.63.27,2.14.82.76,1.29.76,2.23v.82Zm-1.81-1.2c0-.91-.36-1.36-1.1-1.36-.31,0-.58.13-.81.39s-.37.58-.42.97h2.32Z"/>
        <path class="cls-1" d="m188.29,66.71l-2.57,6.82c-.62,1.64-1.55,2.46-2.79,2.46-.47,0-.86-.05-1.17-.16v-1.55c.26.15.54.23.84.23.5,0,.85-.24,1.05-.71l.33-.78-2.57-6.3h2.16l1.18,3.84c.07.24.13.52.17.84h.02c.04-.24.1-.51.2-.83l1.19-3.86h1.93Z"/>
        <path class="cls-1" d="m192.08,73.18c-1.05,0-1.88-.29-2.48-.88s-.9-1.39-.9-2.4.31-1.86.94-2.45c.63-.59,1.47-.88,2.54-.88s1.87.29,2.47.88c.6.59.89,1.37.89,2.34,0,1.05-.31,1.88-.92,2.49-.62.61-1.46.91-2.53.91Zm.05-5.13c-.46,0-.82.16-1.07.48s-.38.76-.38,1.34c0,1.21.49,1.82,1.47,1.82s1.4-.62,1.4-1.87c0-1.18-.47-1.77-1.41-1.77Z"/>
        <path class="cls-1" d="m202.89,73.03h-1.94v-3.51c0-.98-.35-1.47-1.05-1.47-.34,0-.61.13-.83.39-.22.26-.33.59-.33.99v3.6h-1.95v-6.32h1.95v1h.02c.46-.77,1.14-1.15,2.03-1.15,1.4,0,2.1.87,2.1,2.6v3.87Z"/>
        <path class="cls-1" d="m210.61,73.03h-1.95v-.87h-.02c-.44.68-1.1,1.02-1.96,1.02-.79,0-1.42-.28-1.9-.83s-.72-1.34-.72-2.33.26-1.88.8-2.51c.53-.63,1.23-.94,2.08-.94.81,0,1.38.29,1.7.88h.02v-3.76h1.95v9.35Zm-1.91-3.07v-.48c0-.41-.12-.75-.36-1.02-.24-.27-.55-.41-.93-.41-.43,0-.77.17-1.01.51s-.36.81-.36,1.4c0,.56.12.98.35,1.28.24.3.56.45.98.45.39,0,.72-.16.96-.48.25-.32.37-.73.37-1.26Z"/>
        <path class="cls-1" d="m215.93,73.03v-8.84h3.22c.99,0,1.75.18,2.27.54.53.36.8.87.8,1.53,0,.48-.16.89-.48,1.25-.32.36-.73.61-1.24.75v.02c.63.08,1.13.31,1.51.7s.56.86.56,1.41c0,.81-.29,1.45-.87,1.93-.58.48-1.37.71-2.37.71h-3.4Zm1.99-7.38v2.1h.88c.41,0,.73-.1.97-.3.24-.2.35-.47.35-.82,0-.65-.48-.97-1.45-.97h-.75Zm0,3.58v2.33h1.08c.46,0,.82-.11,1.08-.32.26-.21.39-.51.39-.88s-.13-.63-.38-.83-.62-.3-1.08-.3h-1.09Z"/>
        <path class="cls-1" d="m229.09,73.03h-1.84v-.91h-.03c-.42.71-1.05,1.06-1.88,1.06-.61,0-1.09-.17-1.45-.52-.35-.35-.53-.81-.53-1.39,0-1.22.73-1.93,2.18-2.12l1.71-.23c0-.69-.37-1.04-1.12-1.04s-1.47.22-2.15.67v-1.47c.27-.14.64-.26,1.11-.37.47-.11.9-.16,1.29-.16,1.8,0,2.7.9,2.7,2.69v3.77Zm-1.83-2.57v-.43l-1.15.15c-.63.08-.95.37-.95.86,0,.22.08.4.23.55.16.14.36.21.63.21.36,0,.66-.13.89-.38.23-.25.34-.57.34-.96Z"/>
        <path class="cls-1" d="m236.73,73.03h-1.94v-3.51c0-.98-.35-1.47-1.05-1.47-.34,0-.61.13-.83.39-.22.26-.33.59-.33.99v3.6h-1.95v-6.32h1.95v1h.02c.46-.77,1.14-1.15,2.03-1.15,1.4,0,2.1.87,2.1,2.6v3.87Z"/>
        <path class="cls-1" d="m244.6,73.03h-2.34l-2.02-3.13h-.02v3.13h-1.95v-9.35h1.95v5.95h.02l1.88-2.92h2.31l-2.26,2.97,2.42,3.35Z"/>
        <path class="cls-1" d="m246.32,65.71c-.33,0-.6-.1-.81-.29-.21-.19-.31-.43-.31-.72s.1-.53.31-.72c.21-.19.48-.28.81-.28s.6.09.81.28c.21.19.31.42.31.72s-.1.54-.31.73c-.21.19-.48.28-.81.28Zm.96,7.31h-1.95v-6.32h1.95v6.32Z"/>
        <path class="cls-1" d="m255.02,73.03h-1.94v-3.51c0-.98-.35-1.47-1.05-1.47-.34,0-.61.13-.83.39-.22.26-.33.59-.33.99v3.6h-1.95v-6.32h1.95v1h.02c.46-.77,1.14-1.15,2.03-1.15,1.4,0,2.1.87,2.1,2.6v3.87Z"/>
        <path class="cls-1" d="m262.75,72.3c0,1.17-.34,2.08-1.02,2.72-.68.64-1.66.97-2.95.97-.85,0-1.53-.12-2.02-.36v-1.64c.65.38,1.3.57,1.97.57s1.17-.17,1.53-.52c.36-.35.54-.82.54-1.42v-.5h-.02c-.44.71-1.1,1.06-1.97,1.06-.81,0-1.45-.28-1.92-.85-.47-.57-.71-1.33-.71-2.28,0-1.07.26-1.92.79-2.55.53-.63,1.22-.94,2.08-.94.77,0,1.35.3,1.73.89h.02v-.73h1.95v5.59Zm-1.92-2.31v-.5c0-.4-.12-.74-.36-1.02-.24-.28-.54-.42-.92-.42-.43,0-.77.17-1.02.51-.25.34-.37.81-.37,1.43,0,.53.12.94.35,1.25.24.31.56.46.96.46s.73-.16.98-.47c.25-.31.37-.72.37-1.23Z"/>
      </g>
    </g>
  </g>
</svg>